<?xml version="1.0" standalone="no"?>
<!DOCTYPE svg PUBLIC "-//W3C//DTD SVG 20010904//EN"
 "http://www.w3.org/TR/2001/REC-SVG-20010904/DTD/svg10.dtd">
<svg version="1.0" xmlns="http://www.w3.org/2000/svg"
 width="300.000000pt" height="300.000000pt" viewBox="0 0 300.000000 300.000000"
 preserveAspectRatio="xMidYMid meet">
<metadata>
Created by potrace 1.14, written by Peter Selinger 2001-2017
</metadata>
<g transform="translate(0.000000,300.000000) scale(0.100000,-0.100000)"
fill="#000000" stroke="none">
<path d="M1530 2315 c10 -12 10 -18 0 -30 -20 -24 -1 -38 48 -32 24 3 59 1 76
-5 31 -9 50 -12 141 -24 28 -3 53 -8 57 -10 4 -3 26 -7 50 -10 40 -4 72 -11
108 -22 20 -5 65 -12 124 -17 81 -6 131 -17 138 -29 5 -7 8 -6 8 4 0 12 2 13
9 1 5 -8 23 -14 40 -15 17 0 31 -4 31 -7 0 -3 11 -5 25 -3 14 1 32 -4 40 -12
13 -13 18 -13 46 2 l32 16 -32 15 c-41 20 -39 33 4 33 19 0 35 4 35 8 0 5 -46
9 -102 9 -57 0 -128 5 -158 11 -68 14 -117 22 -235 37 -40 6 -164 26 -280 46
-33 5 -71 11 -85 12 -14 0 -31 9 -38 19 -9 12 -26 18 -54 18 -35 0 -39 -2 -28
-15z m49 -32 c-8 -9 -16 -10 -22 -4 -13 13 0 31 19 24 11 -4 12 -8 3 -20z"/>
<path d="M2831 2321 c-7 -5 -9 -11 -5 -14 13 -8 64 4 64 14 0 11 -41 11 -59 0z"/>
<path d="M1481 2284 c0 -11 3 -14 6 -6 3 7 2 16 -1 19 -3 4 -6 -2 -5 -13z"/>
<path d="M2556 2197 c3 -10 9 -15 12 -12 3 3 0 11 -7 18 -10 9 -11 8 -5 -6z"/>
<path d="M2512 2116 c-10 -23 -10 -24 11 -17 23 9 30 32 11 38 -6 2 -16 -8
-22 -21z"/>
<path d="M2542 2028 c-1 -31 -6 -60 -12 -63 -19 -12 -10 -26 15 -22 28 3 46
17 22 17 -13 0 -17 13 -20 63 l-3 62 -2 -57z"/>
<path d="M976 1949 c-9 -47 -7 -197 3 -203 5 -3 11 -18 14 -33 8 -45 33 -104
40 -97 8 8 -2 54 -15 71 -11 13 -4 135 11 203 17 78 15 90 -18 90 -24 0 -29
-5 -35 -31z"/>
<path d="M2522 1883 c-2 -32 -9 -48 -29 -67 -24 -23 -28 -34 -30 -98 -1 -40 0
-65 3 -55 3 9 10 17 15 17 6 0 7 9 4 21 -5 13 -3 19 3 15 5 -3 13 2 16 11 6
14 9 15 15 4 7 -11 13 -9 29 7 11 11 29 23 41 27 12 3 21 10 21 14 0 17 -27
40 -50 43 -22 3 -26 9 -31 53 l-6 50 -1 -42z"/>
<path d="M1313 1858 c-16 -8 -20 -17 -18 -42 15 -131 19 -152 31 -159 8 -4 14
-13 14 -19 0 -13 -67 -78 -81 -78 -5 0 -8 -6 -6 -12 4 -21 -49 -20 -99 1 -26
12 -55 21 -65 21 -11 0 -19 6 -19 14 0 16 -18 31 -27 22 -8 -7 23 -70 42 -86
8 -7 15 -16 15 -20 0 -15 -45 3 -72 28 l-28 26 0 -27 c0 -24 -4 -27 -32 -26
-18 0 -49 -3 -68 -6 l-35 -6 25 20 25 21 -65 0 c-53 0 -77 6 -122 29 -45 24
-58 27 -62 15 -6 -17 68 -56 90 -47 10 4 12 0 8 -11 -4 -12 0 -16 15 -16 13 0
21 -6 21 -17 0 -15 2 -15 19 1 16 15 21 15 28 3 4 -7 22 -21 38 -29 42 -23
280 -96 367 -113 40 -8 100 -22 133 -30 33 -8 75 -15 93 -15 17 0 32 -5 32
-11 0 -6 -11 -48 -24 -93 -14 -44 -28 -107 -32 -138 -3 -32 -8 -58 -9 -58 -2
0 -36 18 -76 41 -41 22 -99 51 -129 65 -30 14 -64 30 -75 36 -39 22 -171 86
-222 109 -29 12 -55 31 -59 41 -7 24 -24 13 -24 -17 0 -18 7 -25 30 -30 38 -8
40 -26 1 -19 -32 7 -41 -10 -41 -84 0 -65 12 -79 72 -87 112 -15 184 -44 290
-117 15 -10 30 -18 34 -18 6 0 104 -68 114 -80 7 -8 110 -74 137 -89 28 -14
57 -3 101 39 49 48 91 144 107 247 4 24 10 45 13 47 4 2 57 14 117 26 239 49
375 149 374 275 l-1 50 -12 -35 c-7 -19 -17 -35 -22 -35 -5 0 -17 -6 -26 -14
-12 -11 -14 -19 -7 -32 10 -19 -5 -37 -16 -19 -12 19 -33 11 -28 -10 6 -23
-12 -27 -21 -5 -5 13 -12 12 -50 -7 -35 -17 -43 -25 -34 -35 8 -10 7 -13 -4
-13 -8 0 -37 -11 -63 -25 -26 -14 -50 -23 -53 -20 -3 2 -10 1 -16 -4 -6 -5
-36 -12 -67 -16 l-55 -7 -12 40 c-7 22 -12 52 -12 68 -1 45 -36 113 -70 132
-24 14 -30 23 -30 53 0 55 -20 89 -52 89 -20 0 -32 8 -43 30 -8 16 -21 33 -28
37 -16 9 -30 70 -18 77 10 7 -5 102 -21 134 -7 13 -21 22 -35 22 -14 0 -31 7
-39 15 -18 17 -30 18 -61 3z m-325 -389 c18 -6 30 -15 27 -19 -7 -11 -65 8
-65 21 0 11 0 11 38 -2z m-28 -249 c0 -5 -4 -10 -10 -10 -5 0 -10 5 -10 10 0
6 5 10 10 10 6 0 10 -4 10 -10z m182 -89 c84 -43 185 -96 223 -118 69 -40 70
-41 76 -89 3 -27 9 -67 13 -89 l8 -40 -25 25 c-28 28 -46 43 -102 85 -22 17
-51 40 -65 53 -14 12 -53 39 -87 59 -60 36 -68 46 -65 86 1 10 -5 17 -16 17
-19 0 -132 70 -132 82 0 16 21 7 172 -71z"/>
<path d="M1794 1627 c0 -113 -4 -162 -12 -165 -25 -8 -10 -22 24 -22 21 0 60
13 95 31 33 18 61 30 64 28 2 -3 6 -29 9 -58 6 -61 9 -66 31 -58 10 4 15 20
15 47 0 55 -18 222 -31 288 -10 50 -13 54 -36 49 -13 -2 -41 -1 -61 3 -20 4
-50 10 -67 13 l-30 5 -1 -161z"/>
<path d="M356 1772 c-3 -5 6 -12 20 -15 15 -3 23 0 21 7 -5 14 -33 20 -41 8z"/>
<path d="M2487 1570 c6 -99 12 -128 14 -69 2 49 1 69 -10 119 -8 36 -9 25 -4
-50z"/>
<path d="M616 1611 c-4 -5 -2 -12 3 -15 5 -4 12 -2 15 3 4 5 2 12 -3 15 -5 4
-12 2 -15 -3z"/>
<path d="M2453 1535 c0 -44 2 -61 4 -37 2 23 2 59 0 80 -2 20 -4 1 -4 -43z"/>
<path d="M2198 1534 c-5 -4 -8 -19 -8 -33 0 -18 3 -22 11 -14 6 6 9 21 7 33
-1 12 -6 18 -10 14z"/>
<path d="M278 1473 c6 -2 18 -2 25 0 6 3 1 5 -13 5 -14 0 -19 -2 -12 -5z"/>
<path d="M320 1460 c0 -5 11 -10 24 -10 14 0 28 -4 31 -10 3 -5 15 -10 26 -10
10 0 19 5 19 10 0 6 -11 10 -24 10 -14 0 -28 5 -31 10 -3 6 -15 10 -26 10 -10
0 -19 -4 -19 -10z"/>
<path d="M458 1423 c12 -2 22 -9 22 -14 0 -5 11 -9 24 -9 14 0 28 -4 31 -10 3
-5 15 -10 26 -10 10 0 19 5 19 10 0 6 -10 10 -23 10 -13 0 -27 4 -32 9 -6 6
-28 12 -50 14 -22 2 -30 2 -17 0z"/>
<path d="M2447 1413 c-4 -3 -7 -39 -7 -80 0 -71 1 -73 20 -63 15 8 20 21 20
49 0 42 -22 105 -33 94z"/>
<path d="M2482 1400 c0 -14 2 -19 5 -12 2 6 2 18 0 25 -3 6 -5 1 -5 -13z"/>
<path d="M595 1370 c3 -5 24 -13 46 -16 22 -4 42 -11 45 -15 6 -11 34 -12 34
-1 0 7 -97 42 -119 42 -7 0 -9 -4 -6 -10z"/>
<path d="M1950 1320 c-25 -11 -57 -19 -72 -19 -16 -1 -28 -5 -28 -9 0 -5 -10
-14 -22 -21 -20 -10 -17 -11 19 -6 24 3 62 11 85 19 24 8 55 17 71 20 29 7 38
37 10 35 -10 -1 -38 -9 -63 -19z"/>
<path d="M379 1299 c-12 -12 -17 -24 -12 -28 4 -4 42 -15 83 -25 41 -10 106
-27 144 -38 67 -20 70 -20 83 -2 27 36 16 49 -49 63 -35 7 -71 20 -81 29 -14
13 -20 14 -26 3 -9 -14 -77 -6 -87 10 -9 15 -33 10 -55 -12z"/>
<path d="M2430 1231 c0 -37 57 -56 68 -22 3 9 -1 11 -16 7 -11 -4 -23 -2 -27
4 -3 5 2 10 11 10 22 0 10 13 -16 17 -14 2 -20 -3 -20 -16z"/>
<path d="M792 908 c-16 -44 -9 -45 11 -3 9 19 13 35 9 35 -4 0 -13 -14 -20
-32z"/>
</g>
</svg>
